<svg xmlns="http://www.w3.org/2000/svg" viewBox="0 0 1000 1000"><defs><style>.cls-1,.cls-10,.cls-14,.cls-21,.cls-23,.cls-8,.cls-9{fill:none;}.cls-2{fill:#f8f8f5;}.cls-10,.cls-11,.cls-12,.cls-13,.cls-14,.cls-17,.cls-18,.cls-19,.cls-2,.cls-20,.cls-21,.cls-22,.cls-23,.cls-24,.cls-3,.cls-7,.cls-8,.cls-9{stroke:#231f20;}.cls-11,.cls-12,.cls-13,.cls-14,.cls-17,.cls-19,.cls-2,.cls-23,.cls-24,.cls-7,.cls-8,.cls-9{stroke-miterlimit:10;}.cls-18,.cls-2,.cls-20,.cls-3{stroke-width:10px;}.cls-3{fill:#ffe8d3;}.cls-10,.cls-14,.cls-3,.cls-9{stroke-linecap:round;}.cls-10,.cls-18,.cls-20,.cls-21,.cls-22,.cls-3{stroke-linejoin:round;}.cls-4{fill:#f8c8b2;}.cls-5{fill:#0a0707;}.cls-6{fill:#fafdf9;}.cls-7{fill:#be2326;}.cls-11{fill:#d8e9ec;}.cls-12{fill:#fff;}.cls-12,.cls-13,.cls-14,.cls-17{stroke-width:7px;}.cls-13{fill:#322c30;}.cls-15{fill:#515350;}.cls-16,.cls-22{fill:#231f20;}.cls-17{fill:#fbc3b1;}.cls-18{fill:#311519;}.cls-19,.cls-24{fill:#eeecec;}.cls-19,.cls-23{stroke-width:2px;}.cls-20{fill:#21b693;}</style></defs><g id="Base"><rect class="cls-1" width="1000" height="1000"/></g><g id="Feet"><path class="cls-2" d="M351.89,682.77A51.18,51.18,0,0,0,365,740c17.63,16,39.78,13.51,42.89,13.11,12.87-1.68,22.08-7.88,26.21-10.73a66.23,66.23,0,0,0,13.1-11.91"/><path class="cls-2" d="M649,682.77A51.2,51.2,0,0,1,635.86,740c-17.64,16-39.78,13.51-42.89,13.11-12.88-1.68-22.09-7.88-26.21-10.73a66,66,0,0,1-13.11-11.91"/></g><g id="Ears"><line class="cls-1" x1="19.03" y1="589.67" x2="14.48" y2="587.85"/><path class="cls-3" d="M348.59,348A86.43,86.43,0,0,1,335,319.84c-2.61-9.54-6.13-22.43-.46-35.89a40.51,40.51,0,0,1,7.27-11.36,156.26,156.26,0,0,0,14.54,21.35c7.17,8.85,14.25,17.41,26.35,23.63a64.38,64.38,0,0,0,7.27,3.18"/><path class="cls-2" d="M350.12,355.42a177.1,177.1,0,0,1-20.45.45c-12.2-.43-16.52-2.46-30-3.63-8.09-.7-15.59-1.36-25-.46a104.55,104.55,0,0,0-32.26,8.64s-13.65,5.54-33.62,21.8c-1.68,1.37-4.84,4-5,7.73-.16,4,3.28,7.38,7.27,10.45a78.36,78.36,0,0,0,27.26,13.17c9.14,2.45,20.45,5.38,35.89,5a112.18,112.18,0,0,0,38.17-7.72"/><path class="cls-3" d="M652.83,348a86.43,86.43,0,0,0,13.63-28.17c2.61-9.54,6.13-22.43.46-35.89a40.51,40.51,0,0,0-7.27-11.36,156.26,156.26,0,0,1-14.54,21.35c-7.17,8.85-14.25,17.41-26.35,23.63a63.6,63.6,0,0,1-7.27,3.18"/><path class="cls-2" d="M648.06,352.08a177,177,0,0,0,20.45.46c12.2-.43,16.52-2.46,30-3.64,8.09-.7,15.59-1.35,25-.45a104.61,104.61,0,0,1,32.26,8.63s13.65,5.54,33.62,21.81c1.68,1.37,4.84,4,5,7.72.16,4-3.28,7.38-7.27,10.45a78.64,78.64,0,0,1-27.26,13.18c-9.14,2.45-20.45,5.38-35.89,5a112.4,112.4,0,0,1-38.17-7.73"/><path class="cls-4" d="M337.06,373a178.88,178.88,0,0,1-25.44-1.36c-9.83-1.23-10.67-2.16-17.27-2.73a82.12,82.12,0,0,0-34.53,4.55,78.81,78.81,0,0,0-25,15A54.09,54.09,0,0,0,258,401.12c6.15,1.53,12.45,1.83,33.17-1.36,9.18-1.42,21.44-3.56,35.89-6.82"/><path class="cls-4" d="M651.46,368.86a159.78,159.78,0,0,0,46.64-1.21c6.46-1.17,10.66-2.39,18.17-2.42a70.75,70.75,0,0,1,33.93,8.48,67.19,67.19,0,0,1,13.33,9.69,66.4,66.4,0,0,1-18.48,9.69c-6.52,2.18-13.82,3.45-34.83,2.73-9.37-.32-21.63-1.05-36.05-2.73"/><rect class="cls-5" x="259.18" y="428.69" width="21.77" height="51.76"/><rect class="cls-6" x="260.12" y="431.77" width="19.81" height="45.6"/><path class="cls-7" d="M275.79,436.5a5.77,5.77,0,0,1-11.53,0c0-3.24,3-5.05,3.11-5.13h5.05A6,6,0,0,1,275.79,436.5Z"/><line class="cls-8" x1="264.66" y1="434.03" x2="260.12" y2="431.77"/><line class="cls-8" x1="275" y1="434.03" x2="280.17" y2="431.36"/><line class="cls-8" x1="259.99" y1="436.67" x2="264.24" y2="436.67"/><line class="cls-8" x1="275.69" y1="436.67" x2="279.94" y2="436.67"/><line class="cls-9" x1="265.05" y1="439.39" x2="259.84" y2="444.04"/><line class="cls-8" x1="275.06" y1="439.39" x2="280.47" y2="444.22"/><line class="cls-10" x1="266.6" y1="441.22" x2="259.84" y2="452.42"/><line class="cls-9" x1="273.31" y1="441.21" x2="280.29" y2="452.77"/><line class="cls-8" x1="267.98" y1="441.77" x2="259.8" y2="472.12"/><line class="cls-8" x1="272.1" y1="441.64" x2="280.25" y2="471.85"/><line class="cls-8" x1="270.02" y1="442.08" x2="270.02" y2="477.69"/><path class="cls-11" d="M259.84,465.13a14.83,14.83,0,0,1,20.45,0v12.25H259.84Z"/><line class="cls-8" x1="270.02" y1="428.69" x2="270.02" y2="417.16"/><rect class="cls-5" x="725.33" y="426.7" width="21.77" height="51.76"/><rect class="cls-6" x="726.27" y="429.78" width="19.81" height="45.6"/><path class="cls-7" d="M741.93,434.51a5.76,5.76,0,0,1-11.52,0c0-3.24,3-5.05,3.11-5.13h5.05A5.94,5.94,0,0,1,741.93,434.51Z"/><line class="cls-8" x1="730.81" y1="432.03" x2="726.27" y2="429.78"/><line class="cls-8" x1="741.15" y1="432.03" x2="746.32" y2="429.37"/><line class="cls-8" x1="726.14" y1="434.68" x2="730.39" y2="434.68"/><line class="cls-8" x1="741.84" y1="434.68" x2="746.09" y2="434.68"/><line class="cls-9" x1="731.2" y1="437.39" x2="725.99" y2="442.05"/><line class="cls-8" x1="741.21" y1="437.39" x2="746.61" y2="442.23"/><line class="cls-10" x1="732.75" y1="439.23" x2="725.99" y2="450.43"/><line class="cls-9" x1="739.46" y1="439.21" x2="746.44" y2="450.78"/><line class="cls-8" x1="734.13" y1="439.78" x2="725.95" y2="470.13"/><line class="cls-8" x1="738.25" y1="439.65" x2="746.4" y2="469.86"/><line class="cls-8" x1="736.17" y1="440.09" x2="736.17" y2="475.69"/><path class="cls-11" d="M726,463.14a14.83,14.83,0,0,1,20.45,0v12.25H726Z"/><line class="cls-8" x1="736.17" y1="426.7" x2="736.17" y2="415.17"/></g><g id="Body"><path class="cls-12" d="M659.9,652.35c3.14-1,9.29-2.62,14-.28,3.83,1.89,4.88,5.45,6.34,9.9,0,0,3.53,10.79,7.61,20.69,5.06,12.28,15.1,18.79,17.94,20.58C718,710.93,732,711.66,740,711.4l.9-9.22a48.29,48.29,0,0,1-19.22-3.32,37.67,37.67,0,0,1-15.13-11.11c-2.32-2.9-3.4-5.23-6-11.25-1.64-3.83-3.94-8.47-5.9-14.21a65.85,65.85,0,0,0-2.67-6.8s-1.25-2.7-2.54-4.93a36.81,36.81,0,0,0-18.31-15.7c-10.12-3.34-20.39-1.05-24.94.22"/><path class="cls-13" d="M734.85,728a15.66,15.66,0,0,0,7.5,3.65,24.09,24.09,0,0,0,10.28.4c3.3-.61,8.1-1.5,10.94-5.25,1.43-1.88,1.57-3.45,3.72-4.92,1.54-1.06,2.44-.92,4.84-1.69s7.06-2.27,7.89-4.88c.77-2.46-2.08-5.32-5.18-8.36-4-3.88-8.87-8.7-17.44-11.25-5.78-1.71-11.36-3.37-16.71-.56-5.65,3-7.58,9.09-8.94,13.4-.93,2.93-2.47,8.05-.51,13.63A14.12,14.12,0,0,0,734.85,728Z"/><circle class="cls-2" cx="502.84" cy="512.5" r="225.64"/><line class="cls-14" x1="498.94" y1="660.76" x2="507.28" y2="652.42"/><line class="cls-14" x1="498.94" y1="652.42" x2="507.28" y2="660.76"/><path class="cls-15" d="M308.44,407.14a97.06,97.06,0,0,0-5.91,11.58c-1.3,3.15-2.17,5.83-2.73,7.69,5.54,5,16.52,13.25,32.12,15.53,7.49,1.09,18.57,2.72,26.26-3.65,5.27-4.36,4-8.35,10.22-13.13,5.44-4.17,11.38-4.94,19-5.83,10.3-1.22,15.39,0,21.88,0a69.73,69.73,0,0,0,33.56-10.22c16.75-10.5,23.13-29.83,27.71-45.95,8.18-28.74,4-54.2.12-69.11-22.71,3.7-56.75,12.33-89.83,34.1a220.67,220.67,0,0,0-33.05,26.69,276,276,0,0,0-31.8,40C312.54,400,309.61,405.08,308.44,407.14Z"/></g><g id="Face"><circle class="cls-16" cx="460.44" cy="447.68" r="13.24"/><circle class="cls-16" cx="547.14" cy="447.62" r="13.24"/><path class="cls-17" d="M476.12,471.59c10.59-8.28,24.53-8.86,25.6-8.89,1.58-.05,13.84-.28,24.67,6.33a23.55,23.55,0,0,1,8,7.41,14,14,0,0,1,0,17.25c-3,4.78-7.08,7.13-10,8.76a39.21,39.21,0,0,1-14,4.59,48.16,48.16,0,0,1-18.06-.68c-4.23-1-10.11-2.32-15.77-7-2.56-2.11-5.48-4.53-6.87-8.89A17.42,17.42,0,0,1,471,477.39,18,18,0,0,1,476.12,471.59Z"/><path class="cls-16" d="M513.11,482.73a9.35,9.35,0,0,1,.91-4,7,7,0,0,1,2.73-3.23,3.12,3.12,0,0,1,2.53-.61c1.21.44,1.55,2.11,1.72,2.93a7.55,7.55,0,0,1-1,5.26,7.07,7.07,0,0,1-2.43,2.43,3.35,3.35,0,0,1-2.83.6,2.88,2.88,0,0,1-1.42-1.72A4.29,4.29,0,0,1,513.11,482.73Z"/><path class="cls-16" d="M484.81,477.47a6.09,6.09,0,0,0,.2,3.23,8,8,0,0,0,2.43,3.95c.83.72,2,1.77,3.23,1.41s1.66-2,1.82-2.53c.75-2.65-.77-5-1.41-6.06a5,5,0,0,0-2.83-2.53,2.86,2.86,0,0,0-2,.2A3.36,3.36,0,0,0,484.81,477.47Z"/><path class="cls-15" d="M717.64,562.41c-3.91-.68-16.36-3.27-21.52-12.09a61,61,0,0,1-5-12.94c-2.4-8.92-1.78-11.65-3.06-15.58-2.65-8.17-8.91-7-20.12-17.18-6.06-5.51-15-13.59-15.28-24.52-.14-5,1.55-8.57,3.49-12.71,6.7-14.29,19.24-21.5,26.11-25.34a80.19,80.19,0,0,1,26.4-9.13,220.94,220.94,0,0,1,7.73,23.93,218.53,218.53,0,0,1,4.6,22.41q1,6.89,1.91,13.79h0s.41,7.5.45,8.33a256.66,256.66,0,0,1-.3,28.47,162.21,162.21,0,0,1-2.42,19.68C719.67,554.78,718.55,559.17,717.64,562.41Z"/></g><g id="Shirt"><path class="cls-18" d="M288.51,585c-.25.59.4,1.38.57,1.6,5.17,6.53,16,51.41,61.51,93a223.51,223.51,0,0,0,43.71,31.18,226.5,226.5,0,0,0,219.43-1.45A226.82,226.82,0,0,0,716.92,585c-65.14,12.46-115.14,17.88-147.55,20.45-29.11,2.32-48.63,2.71-61.79,2.73a609.31,609.31,0,0,1-74.05-3.64c-27.61-3.17-118.77-15.86-136.1-19.38C295.71,584.83,289.18,583.45,288.51,585Z"/><path class="cls-19" d="M349.41,678.52a1127.08,1127.08,0,0,0,150.3,12.07,1125.74,1125.74,0,0,0,153-8.44L641,692a1098.06,1098.06,0,0,1-141.88,6.81,1101.15,1101.15,0,0,1-140.69-11.38Z"/><rect class="cls-19" x="485.11" y="684.04" width="30.35" height="21.54" rx="1.19"/><rect class="cls-19" x="488.21" y="687.71" width="24.15" height="14.2" rx="0.66"/><rect class="cls-19" x="483.93" y="693.48" width="10.97" height="2.65" rx="0.84"/><rect class="cls-19" x="529.69" y="689.9" width="2.88" height="9.62" transform="translate(-28.77 22.98) rotate(-2.41)"/><rect class="cls-19" x="467.79" y="688.77" width="2.88" height="9.62" transform="translate(27.58 -17.88) rotate(2.25)"/><path class="cls-20" d="M288.51,585a188.27,188.27,0,0,0-10.36,51.35c-1,17.84,1,30.13-1.37,55.43-1,11.21-2.54,20.35-3.63,26.35a93.52,93.52,0,0,0,20.9,13.63c26.19,12.39,48.25,8,76.35,8.86a241.52,241.52,0,0,1,67.22,12A336.12,336.12,0,0,1,462,607.06q-50.07-5.26-102-12Q323.71,590.28,288.51,585Z"/><path class="cls-21" d="M349.48,595.48a252.93,252.93,0,0,0-11.14,43.61c-3.71,23.08-2.24,34.89-6.15,62.09a361.23,361.23,0,0,1-7,35.69"/><path class="cls-21" d="M406.68,600.86a389,389,0,0,0-12.91,48.46c-2.57,13-3.45,21.17-7.72,50.43-2.48,17-4.59,30.77-6,39.58"/><path class="cls-21" d="M445.65,657.86a791.4,791.4,0,0,1-93.9-8.16C326.44,646,303,641.24,281.46,636"/><path class="cls-21" d="M436.88,702.82c-10.19-1.81-26-4.31-45.61-6-25.9-2.27-36.58-1.26-56.18-3.18a298.66,298.66,0,0,1-60-12.29"/><path class="cls-22" d="M292.53,590.63l24.84,3.49,30.74,4.24c-2.05,5.95-4,12.38-5.79,19.27a255.28,255.28,0,0,0-5.72,29L283,636.24a141.59,141.59,0,0,1,9.57-45.61Z"/><path class="cls-22" d="M337.06,648.18q13.68,2.34,28.47,4.24,13.88,1.77,26.91,2.89c-.53,3.63-2.23,15.48-2.76,19.11-.63,4.43-2.43,16.93-3.06,21.36q-13.38-.16-27.77-1-12.93-.75-25-1.94c.36-6.68.64-11.61.72-12.88,0-.82.1-1.59.1-1.59,0-.52.08-1.15.14-1.86.25-3.16.45-4.9.87-10.84.42-6.11.51-8.12.71-10.39.06-.66.12-1.21.16-1.59s.06-.49.06-.53C336.7,652.62,336.82,651.31,337.06,648.18Z"/><path class="cls-22" d="M282.52,684.13c7.21,2,15.11,3.94,23.64,5.55,9.53,1.79,18.46,3,26.66,3.7-.82,7.6-2,15.69-3.56,24.2-1.16,6.19-2.46,12.09-3.84,17.66a75.16,75.16,0,0,1-47.27-19.14Q280.33,700.13,282.52,684.13Z"/><path class="cls-22" d="M405.3,605.46c-2.41,7.26-4.74,15.06-6.89,23.38-2.34,9.06-4.18,17.69-5.64,25.81l48.54,2.63c1.71-7.53,3.78-15.52,6.3-23.87,2.45-8.1,5.06-15.68,7.73-22.71Z"/><path class="cls-22" d="M387.07,696.44q10.71.82,22.25,2.25c8.6,1.07,16.81,2.34,24.61,3.73-.49,6.81-.85,13.91-1,21.28-.2,7.76-.2,15.24,0,22.39a253.95,253.95,0,0,0-52.53-9.34q1.43-9.81,3.12-20Q385.18,706.4,387.07,696.44Z"/><path class="cls-20" d="M715,586.27a188.65,188.65,0,0,1,10.36,51.35c1,17.84-1,30.12,1.36,55.42,1.06,11.22,2.54,20.36,3.64,26.35A92.82,92.82,0,0,1,709.43,733c-26.2,12.4-48.26,8-76.36,8.87a241.38,241.38,0,0,0-67.21,12A335.57,335.57,0,0,0,564,695.77a337.91,337.91,0,0,0-22.56-87.46q50.06-5.26,102-12Q679.77,591.53,715,586.27Z"/><path class="cls-21" d="M654,596.73a253.43,253.43,0,0,1,11.13,43.61c3.72,23.08,2.25,34.89,6.16,62.09a358.89,358.89,0,0,0,7,35.69"/><path class="cls-21" d="M596.8,602.11a387.21,387.21,0,0,1,12.9,48.45c2.57,13,3.46,21.18,7.73,50.43,2.47,17,4.58,30.77,6,39.59"/><path class="cls-21" d="M557.82,659.1a787.54,787.54,0,0,0,93.91-8.16c25.3-3.73,48.79-8.45,70.28-13.65"/><path class="cls-21" d="M566.6,704.06c10.18-1.81,26-4.3,45.6-6,25.9-2.27,36.58-1.27,56.19-3.18a298.82,298.82,0,0,0,60-12.3"/><path class="cls-22" d="M710.94,591.88q-12.42,1.75-24.83,3.48-15.37,2.14-30.75,4.24c2,6,4,12.39,5.8,19.27a255.54,255.54,0,0,1,5.71,29l53.64-10.42a140.89,140.89,0,0,0-9.57-45.61Z"/><path class="cls-22" d="M666.42,649.43q-13.68,2.33-28.47,4.24-13.87,1.77-26.91,2.89c.52,3.63,2.23,15.48,2.75,19.11.64,4.43,2.43,16.93,3.07,21.36,8.91-.12,18.18-.43,27.77-1q12.92-.75,25-1.95c-.36-6.68-.64-11.6-.72-12.87,0-.83-.11-1.59-.11-1.6,0-.52-.08-1.14-.13-1.86-.25-3.15-.46-4.89-.87-10.84s-.51-8.12-.72-10.38c-.06-.66-.11-1.21-.16-1.59s0-.49,0-.53C666.77,653.86,666.65,652.55,666.42,649.43Z"/><path class="cls-22" d="M721,685.38c-7.21,2-15.11,3.93-23.64,5.54-9.52,1.8-18.46,3-26.65,3.71.81,7.6,2,15.69,3.56,24.2,1.16,6.19,2.46,12.08,3.84,17.66a75.16,75.16,0,0,0,47.27-19.14Z"/><path class="cls-22" d="M598.17,606.7c2.42,7.26,4.75,15.07,6.9,23.39,2.33,9.06,4.18,17.69,5.64,25.81l-48.54,2.63c-1.71-7.54-3.78-15.52-6.31-23.87-2.44-8.1-5.06-15.68-7.72-22.71Z"/><path class="cls-22" d="M616.4,697.69q-10.7.82-22.25,2.25c-8.59,1.07-16.8,2.34-24.6,3.73.49,6.8.85,13.9,1,21.27.2,7.77.2,15.24,0,22.4A254,254,0,0,1,623.15,738q-1.41-9.81-3.11-20Q618.3,707.65,616.4,697.69Z"/><line class="cls-23" x1="499.7" y1="684.04" x2="501.07" y2="610.02"/><circle class="cls-24" cx="507.14" cy="657.96" r="2.67"/><circle class="cls-24" cx="507.14" cy="623.44" r="2.67"/><circle class="cls-24" cx="507.14" cy="640.7" r="2.67"/><circle class="cls-24" cx="507.14" cy="675.22" r="2.67"/></g></svg>