<svg xmlns="http://www.w3.org/2000/svg" viewBox="0 0 1000 1000"><defs><style>.cls-1,.cls-13,.cls-6{fill:none;}.cls-2,.cls-3,.cls-5{fill:#fff;}.cls-10,.cls-11,.cls-12,.cls-13,.cls-2,.cls-3,.cls-5,.cls-6,.cls-8,.cls-9{stroke:#231f20;}.cls-10,.cls-11,.cls-12,.cls-13,.cls-2,.cls-5,.cls-6,.cls-8,.cls-9{stroke-miterlimit:10;}.cls-2,.cls-3,.cls-8,.cls-9{stroke-width:10px;}.cls-3{stroke-linejoin:round;}.cls-4{fill:#f9b39f;}.cls-5{stroke-width:8px;}.cls-13,.cls-6{stroke-linecap:round;}.cls-11,.cls-12,.cls-6{stroke-width:7px;}.cls-7{fill:#231f20;}.cls-8{fill:#ed1c24;}.cls-9{fill:#6a90ca;}.cls-10{fill:#f6ebbd;stroke-width:2px;}.cls-11{fill:#fd0;}.cls-12{fill:#f04e27;}.cls-13{stroke-width:4px;}</style></defs><g id="Base"><rect class="cls-1" width="1000" height="1000"/></g><g id="Feet"><path class="cls-2" d="M351.89,682.77A51.18,51.18,0,0,0,365,740c17.63,16,39.78,13.51,42.89,13.11,12.87-1.68,22.08-7.88,26.21-10.73a66.23,66.23,0,0,0,13.1-11.91"/><path class="cls-2" d="M649,682.77A51.2,51.2,0,0,1,635.86,740c-17.64,16-39.78,13.51-42.89,13.11-12.88-1.68-22.09-7.88-26.21-10.73a66,66,0,0,1-13.11-11.91"/></g><g id="Ears"><path class="cls-3" d="M581.36,305.2a181,181,0,0,1,90.53-35.66,292.62,292.62,0,0,1,14.79,114.13"/><path class="cls-4" d="M609.31,321.74a152,152,0,0,1,50.5-18c1.67,8,3.14,16.66,4.19,26a277.91,277.91,0,0,1,1.56,41.4"/><path class="cls-3" d="M421.61,305.2a180.38,180.38,0,0,0-30.26-18.52,182.89,182.89,0,0,0-60.26-17.14,292.31,292.31,0,0,0-14.8,114.13"/><path class="cls-4" d="M393.59,321.89a151.07,151.07,0,0,0-50.38-18c-1.67,7.95-3.13,16.62-4.19,25.94a278,278,0,0,0-1.55,41.31"/></g><g id="Body"><path class="cls-5" d="M682.72,641a104.89,104.89,0,0,0,43.4-20.14c5.43-2.67,11.37-2.94,15,0,6.43,5.13,2.05,17.12,1.32,19-2.7,7-7.86,10.71-13.62,14.82A65.32,65.32,0,0,1,700.67,666a63,63,0,0,1-25.23-1.68"/><circle class="cls-2" cx="502.84" cy="512.5" r="225.64"/><line class="cls-6" x1="498.94" y1="660.76" x2="507.28" y2="652.42"/><line class="cls-6" x1="498.94" y1="652.42" x2="507.28" y2="660.76"/><path class="cls-7" d="M475,474.53c-1.25,3-.27,6.41,1.67,8.88a11.42,11.42,0,0,0,8.49,4.2c3.67.23,7.31-1.05,10.54-2.65a20.45,20.45,0,0,0,8-6.58l-3.93.5a28.3,28.3,0,0,0,20.1,8.52c3.39,0,7.18-.6,9.67-3.11,3.05-3.07,2.33-7.41,1.1-11.12-1-3-5.84-1.74-4.82,1.32.66,2,1.87,5.06-.19,6.61s-5,1.4-7.35,1.25a23.17,23.17,0,0,1-15-7,2.54,2.54,0,0,0-3.93.5,14.69,14.69,0,0,1-5.45,4.43,18,18,0,0,1-7.46,2.34,6.89,6.89,0,0,1-5.68-2.1,4.22,4.22,0,0,1-.93-4.66,2.51,2.51,0,0,0-1.75-3.07,2.55,2.55,0,0,0-3.07,1.74Z"/></g><g id="Face"><circle class="cls-7" cx="460.44" cy="447.68" r="13.24"/><circle class="cls-7" cx="547.14" cy="447.62" r="13.24"/><path d="M207.86,481.32c14.7-5.62,30.29-8.19,45.76-10.72,15.76-2.58,31.63-5.11,47.65-5.09a113.55,113.55,0,0,1,26.62,3c3.13.76,4.46-4.06,1.33-4.82-15.87-3.84-32.31-3.7-48.46-2-8.19.88-16.33,2.12-24.46,3.44-8,1.29-16,2.55-23.88,4.15a163.51,163.51,0,0,0-25.89,7.22,2.58,2.58,0,0,0-1.75,3.08,2.52,2.52,0,0,0,3.08,1.74Z"/><path d="M215.43,526a221.09,221.09,0,0,1,40.34-20.42,227,227,0,0,1,44-12A222.16,222.16,0,0,1,325.14,491c3.21-.15,3.23-5.15,0-5a228.33,228.33,0,0,0-89.44,22.92,225.21,225.21,0,0,0-22.79,12.8c-2.7,1.73-.2,6.06,2.52,4.32Z"/><path d="M679,473.62a172.09,172.09,0,0,1,45.6-10.11c15.81-1.45,31.72-1.28,47.56-.54,9,.42,18,1,27,1.66a2.5,2.5,0,0,0,0-5c-16-1.12-32-2.19-48.11-2.21s-32,1-47.71,4.1a157.66,157.66,0,0,0-25.66,7.28,2.58,2.58,0,0,0-1.75,3.08,2.53,2.53,0,0,0,3.08,1.74Z"/><path d="M681.18,497.49A230.6,230.6,0,0,1,799,512.77a2.51,2.51,0,0,0,3.07-1.75,2.55,2.55,0,0,0-1.74-3.07,231.85,231.85,0,0,0-45.18-13.35,236.9,236.9,0,0,0-47.39-4.08,231.63,231.63,0,0,0-26.58,2,2.58,2.58,0,0,0-2.5,2.5c0,1.21,1.15,2.68,2.5,2.5Z"/></g><g id="Shirt"><path class="cls-2" d="M288.81,583.76c-.25.58.41,1.37.58,1.59,5.17,6.54,16,51.41,61.5,93a223.24,223.24,0,0,0,43.72,31.18A226.48,226.48,0,0,0,614,708.07,226.73,226.73,0,0,0,717.22,583.76c-65.13,12.45-115.14,17.87-147.54,20.45-29.12,2.31-48.64,2.7-61.79,2.72-6.63,0-33.14,0-74.06-3.63-28.3-2.49-65.55-6.86-109.45-15-12.51-1.77-20.84-3.22-26.64-4.36C295.4,583.46,289.45,582.26,288.81,583.76Z"/><path class="cls-8" d="M326.24,651.9a221.24,221.24,0,0,0,24.5,26.44l.71.65a88.58,88.58,0,0,0,12.87,9.72l278.05,2.73c6.22-5.87,12.61-12.22,19.08-19.08,7.91-8.4,15.07-16.64,21.54-24.58a83.67,83.67,0,0,1-11.78-55.9c-41,6.82-75.66,10.36-101.68,12.33-16.78,1.26-36,2.68-61.79,2.72-31.15.06-54.36-1.91-74.05-3.63C407.12,601,372.38,597,331.61,589.63a118.89,118.89,0,0,1-5.37,62.27Z"/><path class="cls-9" d="M364.32,688.71l275.11,2.7c-15.52,11.75-63.65,45-133.61,45.72C430.46,737.87,379,700.28,364.32,688.71Z"/><path class="cls-2" d="M475.45,689.74q1.89-22.79,3.79-45.55a68.47,68.47,0,0,1-9.09-20.9,74.73,74.73,0,0,1-2.24-17.92c10.91.88,22.44,1.43,34.54,1.54,11,.1,21.46-.18,31.45-.74a116.58,116.58,0,0,1-2.35,16.21A111.32,111.32,0,0,1,524,645.1q2.26,22.62,4.54,45.26Z"/><circle class="cls-10" cx="461.29" cy="650.68" r="5.91"/><circle class="cls-10" cx="458.9" cy="672.65" r="5.91"/></g><g id="Hat"><path class="cls-11" d="M395.42,310.75a535.88,535.88,0,0,1,212-1.52c19.27,3.69,39.63,8.89,39.58,14.89-.08,7.93-35.55,14.73-50.07,15.95-21.08,1.76-40.49,4.78-94.3,4.32-45.54-.38-65.67-1.69-87.82-4.76-19.23-2.66-52.3-7.24-52.55-14.68C362.2,323.38,363.22,317.48,395.42,310.75Z"/><path class="cls-11" d="M413.56,316.71a89.23,89.23,0,0,1,18.54-52.34c17-21.71,38.92-28.44,47.39-30.9,12.37-3.6,44-10.14,75,7.83,41.29,24,45.8,71,46.15,75.41Z"/><path class="cls-12" d="M414,316.71a53.63,53.63,0,0,1,5.77-28.85c25.94,2.5,54.38,4.12,85,4.19,32.28.08,62.18-1.57,89.32-4.19a58.07,58.07,0,0,1,6.18,28.43,695.09,695.09,0,0,1-95.07,6.47A695.88,695.88,0,0,1,414,316.71Z"/><line class="cls-13" x1="454.14" y1="262.11" x2="441.99" y2="277.15"/><line class="cls-13" x1="458.26" y1="279.62" x2="466.09" y2="267.46"/><line class="cls-13" x1="475.16" y1="278.59" x2="478.46" y2="271.17"/><line class="cls-13" x1="539.85" y1="270.76" x2="543.36" y2="277.77"/><line class="cls-13" x1="554.07" y1="263.76" x2="562.52" y2="277.15"/></g></svg>