<svg xmlns="http://www.w3.org/2000/svg" viewBox="0 0 1000 1000"><defs><style>.cls-1,.cls-4{fill:none;}.cls-2,.cls-9{fill:#b22725;}.cls-2,.cls-24,.cls-3,.cls-30,.cls-4,.cls-5,.cls-6,.cls-8{stroke:#231f20;stroke-miterlimit:10;}.cls-2,.cls-3,.cls-8{stroke-width:10px;}.cls-3,.cls-5{fill:#fbcfcd;}.cls-4{stroke-linecap:round;}.cls-30,.cls-4,.cls-5,.cls-6{stroke-width:7px;}.cls-6{fill:#ba9b9b;}.cls-7{fill:#231f20;}.cls-8{fill:#fefdf5;}.cls-10{fill:#181614;}.cls-11{fill:#323a52;}.cls-12,.cls-22{fill:#db6826;}.cls-13{fill:#ffc54f;}.cls-14{fill:#fff0e8;}.cls-15{fill:#65714b;}.cls-16{font-size:5.32px;fill:#7e1d17;}.cls-16,.cls-18,.cls-20,.cls-22,.cls-29{font-family:Arial-Black, Arial Black;font-weight:800;}.cls-17{letter-spacing:-0.02em;}.cls-18{font-size:7.32px;}.cls-18,.cls-20{fill:#fff;}.cls-19{letter-spacing:-0.02em;}.cls-20{font-size:4.97px;}.cls-21{letter-spacing:0.02em;}.cls-22{font-size:8.01px;}.cls-23{fill:#f6cb67;}.cls-24{fill:#fef1eb;stroke-width:0.5px;}.cls-25{fill:#11130e;}.cls-26{fill:#feeeea;}.cls-27{fill:#435a2d;}.cls-28{fill:#9ca293;}.cls-29{font-size:6.64px;fill:#19100a;}</style></defs><g id="Base"><rect class="cls-1" width="1000" height="1000"/></g><g id="Body"><path class="cls-2" d="M419.59,707a44.75,44.75,0,0,0-15.9,9.54,46,46,0,0,0-13.18,23.63c-1,4.32-2.11,9-.91,15,.51,2.51,2.37,11.76,10.45,16.81,7.52,4.69,15.76,2.86,20.45,1.82,11.08-2.47,18-9.34,23.17-14.54a70.76,70.76,0,0,0,15-22.72,78.65,78.65,0,0,0,4.09-11.81"/><path class="cls-2" d="M579.81,706.58a51.77,51.77,0,0,1,17.26,11.36c3.46,3.46,10.31,10.49,12.72,21.81.9,4.22,2.57,12-1.36,20.44-.9,1.94-5.78,11.79-16.36,14.54-9.75,2.54-18-2.61-24.08-6.36-10-6.19-15.09-14.53-18.62-20.44a74.76,74.76,0,0,1-8.18-19.54"/><path class="cls-2" d="M454.45,727.71a42.24,42.24,0,0,0-10,12.27,43.65,43.65,0,0,0-5,21.35c0,6.92-.06,13,4.09,19.08,5.65,8.26,14.79,10.16,16.35,10.45,13.38,2.55,23.75-6.75,26.35-9.08,9-8.1,11.23-18.33,12.27-23.17a50.63,50.63,0,0,0-.91-24.54"/><path class="cls-2" d="M543.91,727.79a35.31,35.31,0,0,1,10.91,10.45,36.58,36.58,0,0,1,5.9,19.54c.26,6.28.67,16.36-6.81,24.53a27.71,27.71,0,0,1-24.08,8.63c-12.44-1.86-19-12.48-22.72-18.62-9.17-15-7.73-30.66-6.81-36.81"/><circle class="cls-3" cx="502.84" cy="512.5" r="225.64"/><line class="cls-4" x1="498.94" y1="660.76" x2="507.28" y2="652.42"/><line class="cls-4" x1="498.94" y1="652.42" x2="507.28" y2="660.76"/><circle class="cls-5" cx="503.11" cy="500" r="34.04"/><circle class="cls-6" cx="503.11" cy="500" r="15.09"/></g><g id="Face"><circle class="cls-7" cx="460.44" cy="447.68" r="13.24"/><circle class="cls-7" cx="547.14" cy="447.62" r="13.24"/></g><g id="Shirt"><path class="cls-8" d="M288.81,583.76c-.25.58.41,1.37.58,1.59,5.17,6.54,16,51.41,61.5,93a223.24,223.24,0,0,0,43.72,31.18A226.48,226.48,0,0,0,614,708.07,226.73,226.73,0,0,0,717.22,583.76c-65.13,12.45-115.14,17.87-147.54,20.45-29.12,2.31-48.64,2.7-61.79,2.72a611,611,0,0,1-74.06-3.63c-27.61-3.17-118.77-15.87-136.09-19.38C296,583.57,289.48,582.18,288.81,583.76Z"/><path class="cls-9" d="M303,602.62c-.33.67,28.43,18.19,66.79,33.39a480.86,480.86,0,0,0,49.3,16.36,511,511,0,0,0,85.49,15.75A458.39,458.39,0,0,0,591.79,653c63.19-17.42,112.43-45.72,111.46-48.08-.6-1.47-23.36,7.92-74.51,22.34-8.24,2.32-21.72,6-39.07,10.14-10.43,2.51-19.18,4.62-30.59,6.67-14.66,2.62-33.72,6-58.46,5.6a253.79,253.79,0,0,1-33-2.58c-9.93-1.46-18.68-3.5-36.19-7.57-9.27-2.15-17.21-4.14-23.38-5.69-9.76-2.44-11.6-3-25.84-6.57l-1.84-.47c-11.34-2.85-19.13-4.77-21-5.23-12.94-3.23-21-5.23-30-8.24C312.58,607.71,303.18,602.23,303,602.62Z"/><path class="cls-9" d="M503.12,675.08,619.2,689.39l.45,9.62A210.44,210.44,0,0,1,576,720.21,229.27,229.27,0,0,1,436.1,722a212.81,212.81,0,0,1-49.29-23l.23-8.71Z"/><rect class="cls-10" x="538.05" y="660.22" width="26.76" height="10.54"/><rect class="cls-11" x="522.85" y="670.76" width="27.36" height="8.51"/><path class="cls-12" d="M566.84,696.1H533q2.53-7.29,5.06-14.59h32Z"/><path class="cls-13" d="M567.18,694.56l-33.65,0q2-5.71,4-11.43l32.23,0Z"/><circle class="cls-14" cx="546.87" cy="712.01" r="12.06"/><circle class="cls-15" cx="546.87" cy="712.01" r="9.96"/><rect class="cls-14" x="535.74" y="708.58" width="22.5" height="7.39" transform="translate(-245.87 290.48) rotate(-24.46)"/><text class="cls-16" transform="translate(540.43 717.42) rotate(-24.47)">R<tspan class="cls-17" x="4.14" y="0">A</tspan><tspan x="8.18" y="0">CE</tspan></text><text class="cls-18" transform="translate(540.36 668.04)">R<tspan class="cls-19" x="5.69" y="0">A</tspan><tspan x="11.25" y="0">CE</tspan></text><text class="cls-20" transform="translate(524.65 676.83)"><tspan class="cls-21">r</tspan><tspan x="2.29" y="0">oundles</tspan></text><text class="cls-22" transform="translate(539.52 692.16)">N F T</text><rect class="cls-23" x="451.22" y="677.5" width="21.67" height="7.91"/><circle class="cls-24" cx="476.58" cy="681.03" r="5.21"/><polygon class="cls-7" points="476.58 676.84 477.85 679.41 480.69 679.82 478.63 681.83 479.12 684.65 476.58 683.32 474.04 684.65 474.52 681.83 472.47 679.82 475.31 679.41 476.58 676.84"/><rect class="cls-25" x="452.67" y="690.27" width="13.53" height="10.79"/><rect class="cls-26" x="466.13" y="690.27" width="13.53" height="10.79"/><path class="cls-26" d="M467.55,697.71l-7.46-.09-1.79,0h-1.15c0-.08,0-.34,0-.44l-.07-1.73a11.26,11.26,0,0,1-.08-1.92l-.29.37c-.17,0-.13,0,.13,0h3l3.45,0-.62-.62.22,1.66c.1.78,1.35.79,1.25,0l-.22-1.66a.65.65,0,0,0-.63-.63c-2.15,0-4.31-.07-6.46,0-.42,0-.89.05-1,.53a4.32,4.32,0,0,0,0,1.39c.05,1,.05,2.07.14,3.1s.9,1.16,1.84,1.18l3.23,0,6.57.08a.63.63,0,0,0,0-1.25Z"/><path class="cls-7" d="M466.2,698.94c2.82.12,5.66.27,8.47.16a4.86,4.86,0,0,0,1.7-.24,1.49,1.49,0,0,0,.85-1.56c0-.47,0-.94,0-1.41s-.06-.65-.09-1,0-.67,0-1c0-.88-.8-1-1.49-1-2.37,0-4.74,0-7.11-.06a.63.63,0,0,0-.63.63l0,1.85a.63.63,0,0,0,1.25,0l0-1.85-.62.62c2.09,0,4.19,0,6.29,0h.79c.07,0,.39.06.44,0h0c-.13-.24-.2-.28-.2-.12a1.08,1.08,0,0,0,0,.44c0,.3.05.6.08.9.06.53.06,1.08.08,1.62,0,.22,0,.57,0,.66s0,0,0,0a3.12,3.12,0,0,1-.33.11c-.11,0,0,0-.13,0l-.33,0-.85,0c-1.48,0-3,0-4.46,0-1.21,0-2.43-.08-3.65-.13-.8,0-.8,1.22,0,1.25Z"/><rect class="cls-27" x="449.38" y="707.65" width="20.07" height="11.02"/><rect class="cls-28" x="469.62" y="710.6" width="20.07" height="11.02"/><rect class="cls-28" x="451.61" y="708.88" width="15.6" height="8.56"/><rect class="cls-27" x="471.86" y="711.83" width="15.6" height="8.56"/><text class="cls-29" transform="translate(455.51 684)">1st</text></g><g id="Hat"><path class="cls-8" d="M342.75,355.86a233.79,233.79,0,0,1,73.05-49.15c16.94-7.28,52.92-22.25,101-19.31,42.9,2.62,73.22,18.12,91.69,27.57,15.27,7.8,36,18.63,56.34,40.43,12.17,13,18.84,24.26,27.26,38.62,8.73,14.89,35.53,60.59,36.8,104.5.11,3.82-.38,15-1.36,37.25A107.72,107.72,0,0,1,724.84,558c-1.44,6-2.78,11.57-6.15,17.7-1.81,3.28-5.12,8.46-8.27,14.1a28.55,28.55,0,0,1-6.7,8.21,40,40,0,0,1-13.4,7.24c-24.66,8.34-54.83,15.44-54.83,15.44-15,3.52-9.14,2.71-34.73,9.18-26.19,6.61-39.6,10-54.83,12.06a303.17,303.17,0,0,1-37.16,2.9,296.55,296.55,0,0,1-47.52-3.38c-4.94-.74-8.31-1.37-51.17-12.07-70-17.47-62.12-16.08-66.41-16.89a125.68,125.68,0,0,1-18.28-4.83,81.67,81.67,0,0,1-19.49-9.17,55.64,55.64,0,0,1-6.26-4.89,65.48,65.48,0,0,1-7.75-8.63c-4.26-5.75-10.67-20.89-14.11-42-.4-6.89-.72-16.56-.34-28.1.59-17.65,1.5-40.08,9.88-67.31a230.11,230.11,0,0,1,55.43-91.77Z"/><path class="cls-2" d="M336.84,356.77c-2.49-3.38,13.84-20,26.35-30.9,0,0,29.31-25.4,68.15-35.44a27.17,27.17,0,0,1,9-.91c7.4.55,10.75,4.9,18.47,8.4,11.52,5.23,20.61,9,28.64,11.1s12.7,3.27,19.27,2.73c7.78-.64,17.89-3.69,17.89-3.69-6.79,2.21,13.78-3.95,20.29-6.88,12-5.41,12.94-9.53,21-10.61,5.28-.7,9.59.43,13.56,1.68,28.6,9.06,52.24,26.81,52.24,26.81a253.26,253.26,0,0,1,35,31.8c-19.25-3.49-34.46-6.55-44.53-8.63-21.31-4.42-28.43-6.31-39.11-3.76-2.92.7-2.42.85-23.28,8.24-8.11,2.87-13.84,4.86-20.37,7.12-21.37,7.39-32,11.09-33.55,11.11-4.12.07-16.13-4.13-40.15-12.54-4.86-1.7-8-2.84-11.71-4.29-4.85-1.9-8.11-3.35-13.26-5.39-4.26-1.68-7.79-3.06-10-3.77-7.54-2.41-14.42-1.61-26.2.55-13.25,2.43-19.87,3.64-29.53,6.36C347.83,353.51,338.67,359.24,336.84,356.77Z"/><path class="cls-30" d="M381.91,395.93c22.67-1.7,22.79-1.77,28.13-2.07,12.79-.71,22.26-.93,37-1.27,5.89-.13,17.22-.36,37.93-.54,14.58-.13,29.41-.25,44.09-.18,7.17,0,34.92.22,73.34,2,0,0,19.55.9,74.93,7.06.35,0,1.23.13,2.38.29,3.18.45,15.59,2.21,22.86,8.26,2.61,2.17,3.32,3.86,9.69,20.74,5.21,13.83,7.82,20.75,8,21.51,2.48,9.1,5.64,20.69,3.19,35.18-.74,4.38-2.61,16.05-11.42,27.16-5.42,6.82-11.51,11.22-16,14.48a120.72,120.72,0,0,1-30.48,15.85c-11.47,4-22.11,7.79-36.46,7-4.54-.27-15.94-1.05-26.23-7.18-2.55-1.52-2.92-2.11-8.72-6.94-8.64-7.21-16.44-13.71-24.22-18.47a101.43,101.43,0,0,0-24.44-10.5c-17.38-5.23-32.12-5.39-42.49-5.43-8.19,0-19.34-.07-33.36,2.9-7.66,1.62-30.2,6.39-48,21-6.34,5.21-8.49,8.73-17.13,13.75-5.62,3.27-12.86,7.48-23.07,8.92-12.94,1.81-23.6-1.83-38.09-6.79a120.26,120.26,0,0,1-21.19-9.16c-5.58-3.13-19.85-11.31-30-26a55.82,55.82,0,0,1-4.43-7.59c-1.3-2.7-6.17-12.56-6.84-24-.28-4.88,1.93-12.73,6.36-28.23,4.87-17,7.47-22.94,9.09-26.35,3.88-8.2,5.82-12.3,8.71-15,6.72-6.4,14-5.84,42.17-7.67C358.84,397.81,370.37,396.79,381.91,395.93Z"/><path d="M549.25,615.67l19.19-9.9a7.88,7.88,0,0,1,5.18-1.69c.58,0,2.77.13,4,1.45s.63,2.86.3,3.86a7.51,7.51,0,0,1-2.43,3.38c-1.59,1.35-3,1.73-6.7,3.14-4.3,1.61-3.1,1.33-7.32,2.89-5.69,2.11-7.49,2.48-9.13,2.66-2.14.24-4.59.51-5.49-.48S546.85,617.79,549.25,615.67Z"/><path d="M453.55,614.63l-19.19-9.89a7.88,7.88,0,0,0-5.18-1.69c-.59,0-2.77.12-4,1.44s-.63,2.87-.31,3.87a7.62,7.62,0,0,0,2.44,3.38c1.59,1.34,3,1.73,6.7,3.13,4.3,1.62,3.09,1.34,7.31,2.9,5.7,2.11,7.49,2.47,9.14,2.65,2.14.24,4.59.51,5.48-.48S456,616.76,453.55,614.63Z"/><path d="M628.75,598.77c-.17-.47,14.22-3.54,32.9-10.38,8.36-3.06,15-5.94,19.5-8,2.27-1.89,4.71-2.77,6.09-2.17,1.56.67,1.34,3.07,1.22,4.34-.24,2.54-1.52,7.86-9.45,14.48L633.32,610.6l22.54-10.38,1.53-6.76C634,598.3,628.86,599.05,628.75,598.77Z"/><path d="M374.55,596.85c.17-.48-14.21-3.54-32.89-10.38-8.37-3.06-15-6-19.5-8-2.28-1.88-4.71-2.77-6.09-2.17-1.56.68-1.34,3.07-1.22,4.34.23,2.54,1.52,7.86,9.44,14.49L370,608.67l-22.54-10.38q-.75-3.37-1.52-6.75C369.3,596.37,374.45,597.12,374.55,596.85Z"/></g></svg>