<svg xmlns="http://www.w3.org/2000/svg" viewBox="0 0 1000 1000"><defs><style>.cls-1{fill:#f99d1c;}.cls-1,.cls-11,.cls-12,.cls-13,.cls-14,.cls-15,.cls-16,.cls-3,.cls-4,.cls-9{stroke:#231f20;}.cls-1,.cls-11,.cls-12,.cls-3,.cls-4{stroke-miterlimit:10;}.cls-1,.cls-11,.cls-3,.cls-9{stroke-width:10px;}.cls-12,.cls-16,.cls-2,.cls-4{fill:none;}.cls-3,.cls-9{fill:#4a4b4a;}.cls-16,.cls-4{stroke-linecap:round;}.cls-13,.cls-14,.cls-4{stroke-width:7px;}.cls-13,.cls-15,.cls-5{fill:#fff;}.cls-6{fill:#231f20;}.cls-7{fill:#f99c1c;}.cls-8{fill:#f8b1ab;opacity:0.5;}.cls-13,.cls-14,.cls-15,.cls-16,.cls-9{stroke-linejoin:round;}.cls-10{fill:#741913;}.cls-11{fill:#d3eaf9;}.cls-12{stroke-width:16px;}.cls-14{fill:#3e3e3c;}.cls-15,.cls-16{stroke-width:6px;}</style></defs><g id="Feet"><path class="cls-1" d="M351.89,682.77A51.18,51.18,0,0,0,365,740c17.63,16,39.78,13.51,42.89,13.11,12.87-1.68,22.08-7.88,26.21-10.73a66.23,66.23,0,0,0,13.1-11.91"/><path class="cls-1" d="M649,682.77A51.2,51.2,0,0,1,635.86,740c-17.64,16-39.78,13.51-42.89,13.11-12.88-1.68-22.09-7.88-26.21-10.73a66,66,0,0,1-13.11-11.91"/></g><g id="Ears"><line class="cls-2" x1="19.03" y1="589.67" x2="14.48" y2="587.85"/></g><g id="Body"><circle class="cls-3" cx="502.84" cy="512.5" r="225.64"/><line class="cls-4" x1="498.94" y1="660.76" x2="507.28" y2="652.42"/><line class="cls-4" x1="498.94" y1="652.42" x2="507.28" y2="660.76"/><path class="cls-5" d="M368,628.74a178.71,178.71,0,0,1-32.46-54.42,183.71,183.71,0,0,1-11.15-71c1.58-40.31,15.92-67.88,30.05-95,21.6-41.54,38.68-50.75,45.71-53.9a66.21,66.21,0,0,1,28.65-6.14,77.09,77.09,0,0,1,34.12,10.23c35.28,20.77,39.3,71.57,39.57,75.73,1.21-12.74,5.94-42.57,29.34-65.49,5.79-5.68,14.81-14.32,29.34-18.43,25-7.09,46.52,4.65,50.48,6.83,17.15,9.4,24.38,22.89,38,48.32,8.66,16.15,24.48,46.38,29,89.83,1.45,13.91,3.15,30.32-.79,51.67-1.29,7-7.92,40.15-34.53,72.69-25.92,31.71-56.25,45.05-70,50.89-14.68,6.25-73.76,31.41-138.12,6.36C428.43,674.27,396.24,661.2,368,628.74Z"/></g><g id="Face"><circle class="cls-6" cx="460.44" cy="447.68" r="13.24"/><circle class="cls-6" cx="547.14" cy="447.62" r="13.24"/><path class="cls-7" d="M485.38,456.65c1-5,10.51-7,15.45-7.26,6.42-.4,16.87,1.31,18.17,6.66s-7,13.72-15.75,14.23C493.71,470.84,484.28,462.16,485.38,456.65Z"/><path class="cls-8" d="M416.56,468.69c3.8-8.32,14.46-8.82,15.9-8.86s11.37-.2,15.9,7.27c.74,1.21,3.09,5.52,1.59,10.22-2,6.22-9.12,8.23-11.35,8.86-7.21,2-18.66,1-22.27-6.59C414,474.58,416.24,469.39,416.56,468.69Z"/><path class="cls-8" d="M561.67,468.69c3.8-8.32,14.46-8.82,15.9-8.86s11.37-.2,15.9,7.27c.74,1.21,3.09,5.52,1.59,10.22-2,6.22-9.12,8.23-11.36,8.86-7.21,2-18.65,1-22.26-6.59C559.07,474.58,561.35,469.39,561.67,468.69Z"/><path class="cls-9" d="M478.66,293.14a40.31,40.31,0,0,0-6.31-18,39.32,39.32,0,0,0-7.3-8.28,31.45,31.45,0,0,1,33.15,18.89,49.12,49.12,0,0,1,13.6-29.83,64.49,64.49,0,0,0,3.31,23.53,81.24,81.24,0,0,1,25.53-17.24,59.5,59.5,0,0,0-13.22,30.92"/><path class="cls-10" d="M577.86,422.44a39.66,39.66,0,0,0-7.69-9.84c-10.28-9.29-23.92-8.83-26-8.73a37.13,37.13,0,0,0-34.69,29.07c-1.71-.05-3.52-.05-5.42,0-2.66.1-5.15.31-7.45.6-.17-2.11-1.63-17.65-15.08-26.72-11.29-7.61-23.39-5.51-26.66-4.94a37.6,37.6,0,0,0-20,10,38.22,38.22,0,0,0-11.19,24.6l-9.37.16c-6.84-.95-12.2,4.25-12.14,9s5.41,9.69,12.14,8.74h10.65a45.42,45.42,0,0,0,5.54,12.06c2.69,4.13,13.11,20.14,31.66,20.38,12.74.17,25.61-7.09,31.42-18.78a33.21,33.21,0,0,0,3.26-16.53,10.71,10.71,0,0,1,14.25.94,34.52,34.52,0,0,0,8.84,23.43,35.39,35.39,0,0,0,22.36,10.86c19.24,1.6,31.43-14.14,32.8-16a40.15,40.15,0,0,0,7.17-16.36l14.26,0a8.79,8.79,0,0,0-.77-17.48l-12.57-.26A45.58,45.58,0,0,0,577.86,422.44Zm-92.63,31.37C480.58,464.63,467.9,474,455,470.65c-11.42-3-17.43-14.49-18.35-23.87-1.06-10.64,4.05-22.21,13.6-27.21,7.72-4,16-2.55,16.9-2.38a26.92,26.92,0,0,1,7.53,2.71,29.37,29.37,0,0,1,6.15,4.72C485.63,429.61,490.21,442.2,485.23,453.81Zm79.9,6a23.9,23.9,0,0,1-5.76,7,24.77,24.77,0,0,1-22.86,4.33c-9.22-3-13.37-10.59-14.49-12.73a26.83,26.83,0,0,1,20.19-39.18,21.92,21.92,0,0,1,10.3.3c9.2,2.57,13.41,10.63,14.27,12.29C573.58,444.8,566,458.34,565.13,459.79Z"/></g><g id="Shirt"><path class="cls-11" d="M288.81,583.76c-.25.58.41,1.37.58,1.59,5.17,6.54,16,51.41,61.5,93a223.24,223.24,0,0,0,43.72,31.18A226.48,226.48,0,0,0,614,708.07,226.73,226.73,0,0,0,717.22,583.76c-65.13,12.45-115.14,17.87-147.54,20.45-29.12,2.31-48.64,2.7-61.79,2.72a611,611,0,0,1-74.06-3.63c-27.61-3.17-118.77-15.87-136.09-19.38C296,583.57,289.48,582.18,288.81,583.76Z"/><path class="cls-12" d="M439.85,604a220,220,0,0,0,28,131.49"/><path class="cls-12" d="M555.09,605.26A172.64,172.64,0,0,1,540,734.08"/><path class="cls-6" d="M438.66,728.28c2.28-8.54,7.77-15.75,14.87-17.5,10.81-2.66,25.79,7.25,28.7,25.38"/><path class="cls-6" d="M568.92,728.28c-2.28-8.54-7.77-15.75-14.87-17.5-10.81-2.66-25.79,7.25-28.7,25.38"/><path class="cls-13" d="M439.85,604l43,23.88,17.72-20.9c-10.46,0-21.38-.31-32.71-.91Q453.38,605.26,439.85,604Z"/><path class="cls-13" d="M555.73,604l-43,23.88L495,606.93c10.46,0,21.38-.31,32.71-.91Q542.22,605.26,555.73,604Z"/></g><g id="Hat"><path class="cls-14" d="M497.74,614.05l-10.3,12.27q2.38,4.62,4.75,9.25-2.81,24.34-5.62,48.69L498.28,707l11-22.24q-2.8-24.12-5.62-48.23l5.06-9.65Z"/><path class="cls-15" d="M488,500.26q.39,6.53.79,13l11.18.57a22.76,22.76,0,0,0,2-6.3,23.58,23.58,0,0,0,0-7.51q-3.6.15-7.38.2C492.31,500.3,490.11,500.29,488,500.26Z"/><path class="cls-16" d="M483,499.59a64.83,64.83,0,0,0,9.6.72c4.36,0,4.84-.37,8.17-.29,1,0,1.83.08,2.59.16a52.16,52.16,0,0,1,6.58,1c5.3,1.08,11.49.52,11.5.34C521.45,501.06,483,499.17,483,499.59Z"/><path class="cls-15" d="M502,500.07a25.47,25.47,0,0,1-2,13.81,43.47,43.47,0,0,0,9-.52,6.09,6.09,0,0,0,3.16-1.29,6.46,6.46,0,0,0,1.86-3.72,14.81,14.81,0,0,0,0-6.74q-2.9-.33-5.86-.7Q505,500.51,502,500.07Z"/></g></svg>